<?xml version="1.0"?>
<svg version="1.1" xmlns="http://www.w3.org/2000/svg" width="400px" height="400px" style="border: dashed 2px #aaa"><path fill="#" d="M75.78662109375,150.1611328125q0-6.77001953125,1.656494140625-9.866943359375t4.75341796875-4.3212890625t7.490234375-0.936279296875t10.299072265625,0.2880859375q14.98046875,0,30.2490234375,4.609375t27.51220703125,13.468017578125t19.73388671875,21.822509765625t7.490234375,29.81689453125q0,11.2353515625-3.240966796875,21.246337890625t-9.146728515625,18.7255859375t-13.828125,15.916748046875t-17.42919921875,12.53173828125q3.88916015625,3.88916015625,10.0830078125,13.756103515625t12.24365234375,21.0302734375t10.731201171875,21.678466796875t5.545654296875,15.8447265625l-1.728515625,2.5927734375q-3.88916015625,2.3046875-9.36279296875,2.44873046875q-2.5927734375,0-6.77001953125-0.648193359375t-5.32958984375-3.817138671875q-5.90576171875-16.56494140625-12.891845703125-34.13818359375t-17.213134765625-31.689453125l0-0.2880859375q-3.60107421875,1.4404296875-7.130126953125,2.808837890625t-7.130126953125,2.520751953125q1.15234375,15.98876953125,2.376708984375,31.473388671875t1.224365234375,31.329345703125q0,2.0166015625-1.944580078125,3.240966796875t-4.393310546875,1.944580078125t-4.969482421875,1.00830078125t-4.105224609375,0.2880859375q-1.4404296875,0-4.105224609375-0.2880859375t-5.113525390625-1.00830078125t-4.249267578125-2.088623046875t-1.800537109375-3.673095703125q0-15.98876953125-0.72021484375-31.905517578125t-1.58447265625-31.761474609375q-4.46533203125-2.880859375-4.46533203125-7.490234375q0-3.60107421875,3.45703125-4.8974609375q-1.728515625-30.39306640625-3.961181640625-60.64208984375t-2.232666015625-60.93017578125z M101.8583984375,145.69580078125q2.0166015625,31.25732421875,4.537353515625,61.79443359375t4.825439453125,61.79443359375q10.0830078125-2.880859375,18.797607421875-10.010986328125t15.052490234375-16.060791015625t9.866943359375-19.44580078125t3.529052734375-20.88623046875q0-11.5234375-4.609375-22.110595703125t-12.24365234375-18.509521484375q-7.7783203125-7.92236328125-17.861328125-12.3876953125q-8.9306640625-3.88916015625-18.7255859375-3.88916015625l-2.5927734375,0z M214.45246582031,147.13623046875q0-10.0830078125,3.45703125-13.5400390625t9.65087890625-3.45703125q1.728515625,0,3.673095703125,0.2880859375t3.673095703125,0.8642578125q9.65087890625-1.87255859375,18.29345703125-1.87255859375q13.97216796875,0,25.3515625,4.8974609375q18.29345703125,7.7783203125,30.2490234375,23.046875t17.5732421875,35.86669921875t5.61767578125,42.20458984375q0,12.099609375-1.656494140625,25.20751953125t-6.409912109375,24.34326171875q-4.17724609375,10.0830078125-11.5234375,21.102294921875t-16.636962890625,20.88623046875t-20.02197265625,17.28515625t-21.678466796875,10.010986328125l0,1.15234375q0,2.880859375-1.512451171875,4.681396484375t-3.673095703125,2.73681640625t-4.969482421875,1.224365234375t-5.257568359375,0.2880859375q-1.4404296875,0-4.105224609375-0.2880859375t-5.185546875-1.080322265625t-4.249267578125-2.088623046875t-1.728515625-3.60107421875q0-26.2158203125-1.368408203125-52.503662109375t-3.096923828125-52.57568359375t-3.096923828125-52.503662109375t-1.368408203125-52.57568359375z M241.67658691406,139.7900390625q1.4404296875,13.828125,1.87255859375,27.584228515625t1.29638671875,27.584228515625q2.3046875,35.72265625,5.32958984375,71.085205078125t3.60107421875,71.085205078125q13.828125-9.07470703125,23.695068359375-20.7421875t16.204833984375-25.3515625t9.290771484375-28.736572265625t2.952880859375-31.041259765625q0-11.5234375-2.0166015625-25.3515625t-6.9140625-26.64794921875t-13.179931640625-23.19091796875t-20.670166015625-14.83642578125q-2.5927734375-0.8642578125-6.265869140625-1.4404296875t-11.739501953125-0.576171875q-0.8642578125,0-1.728515625,0.2880859375t-1.728515625,0.2880859375z"/><path fill="#" d=""/></svg>
